<?xml version="1.0" encoding="utf-8"?>
<!-- Generator: Adobe Illustrator 25.0.1, SVG Export Plug-In . SVG Version: 6.00 Build 0)  -->
<svg version="1.1" id="Слой_1" xmlns="http://www.w3.org/2000/svg" xmlns:xlink="http://www.w3.org/1999/xlink" x="0px" y="0px"
	 viewBox="0 0 70 70" style="enable-background:new 0 0 70 70;" xml:space="preserve">
<style type="text/css">
	.st0{fill:#FF9800;}
	.st1{fill:#FFFFFF;}
</style>
<path class="st0" d="M10.6,39.6v9c0,2.3,1.3,4.5,3.3,5.6l16,8.7c1.9,1.1,4.2,1.1,6.1,0l16-8.7c2-1.1,3.3-3.3,3.3-5.6v-9L36,50.1
	c-1.9,1.1-4.2,1.1-6.1,0L10.6,39.6z M29.9,8.7L3,23.4c-2.2,1.2-2.2,4.4,0,5.6l26.9,14.7c1.9,1.1,4.2,1.1,6.1,0l25.7-14v18.9
	c0,1.8,1.4,3.2,3.2,3.2c1.8,0,3.2-1.4,3.2-3.2V28.1c0-1.2-0.6-2.2-1.7-2.8L36,8.7C34.1,7.7,31.8,7.7,29.9,8.7z"/>
<g>
	<g>
		<path class="st1" d="M30.7,6.8h4.2l13.3,34.8h-7.1l-8.3-23.8l-8.3,23.8h-7.1L30.7,6.8z M23.8,29.7h18.3V36H23.8V29.7z"/>
	</g>
</g>
</svg>
