<?xml version="1.0" encoding="utf-8"?>
<!-- Generator: Adobe Illustrator 25.0.1, SVG Export Plug-In . SVG Version: 6.00 Build 0)  -->
<svg version="1.1" id="Слой_1" xmlns="http://www.w3.org/2000/svg" xmlns:xlink="http://www.w3.org/1999/xlink" x="0px" y="0px"
	 viewBox="0 0 263 75" style="enable-background:new 0 0 263 75;" xml:space="preserve">
<style type="text/css">
	.st0{fill:#FF9800;}
	.st1{fill:#FFFFFF;}
</style>
<path class="st0" d="M19.3,40.9v9c0,2.3,1.3,4.5,3.3,5.6l16,8.7c1.9,1.1,4.2,1.1,6.1,0l16-8.7c2-1.1,3.3-3.3,3.3-5.6v-9L44.7,51.4
	c-1.9,1.1-4.2,1.1-6.1,0L19.3,40.9z M38.6,10L11.7,24.7c-2.2,1.2-2.2,4.4,0,5.6L38.6,45c1.9,1.1,4.2,1.1,6.1,0l25.7-14v18.9
	c0,1.8,1.4,3.2,3.2,3.2s3.2-1.4,3.2-3.2V29.4c0-1.2-0.6-2.2-1.7-2.8L44.7,10C42.8,9,40.5,9,38.6,10z"/>
<g>
	<g>
		<path class="st0" d="M90.4,19.3h6.7v35.5h-6.7V19.3z M92.8,19.3h20.4v6.4H92.8V19.3z M93.4,48.4h11.4c0.8,0,1.5-0.2,2.1-0.6
			c0.6-0.4,1.1-0.9,1.4-1.6s0.5-1.5,0.5-2.4c0-0.9-0.2-1.7-0.5-2.4c-0.3-0.7-0.8-1.2-1.4-1.6c-0.6-0.4-1.3-0.6-2.1-0.6H93.4v-6.4
			h11.2c2.2,0,4.2,0.5,5.8,1.4c1.7,0.9,3,2.2,3.9,3.9s1.4,3.6,1.4,5.8c0,2.2-0.5,4.1-1.4,5.8s-2.2,2.9-3.9,3.8s-3.6,1.4-5.8,1.4
			H93.4V48.4z"/>
		<path class="st0" d="M124.3,29.5h6.7v25.3h-6.7V29.5z M127.7,49.6h8.2c1,0,1.8-0.2,2.3-0.7c0.5-0.5,0.8-1.1,0.8-2v-0.1
			c0-0.8-0.3-1.5-0.8-1.9c-0.5-0.5-1.3-0.7-2.3-0.7h-8.2V39h8.2c0.8,0,1.5-0.2,2-0.6c0.5-0.4,0.7-0.9,0.7-1.6c0-0.7-0.2-1.2-0.7-1.6
			c-0.5-0.4-1.1-0.5-1.9-0.5h-8.2v-5.2h9.6c2.5,0,4.5,0.5,5.9,1.6c1.4,1.1,2.1,2.6,2.1,4.7c0,1.5-0.4,2.8-1.2,3.8s-2,1.6-3.5,1.9
			c1.7,0.4,2.9,1.1,3.9,2.3c0.9,1.2,1.4,2.7,1.4,4.4v0.1c0,2.1-0.7,3.7-2.2,4.8c-1.5,1.1-3.6,1.7-6.3,1.7h-9.5V49.6z"/>
		<path class="st0" d="M154.3,19.3h6.7v35.5h-6.7V19.3z M156.7,19.3h18.5v6.4h-18.5V19.3z"/>
		<path class="st0" d="M179.9,48.4h30.3v6.4h-30.3V48.4z M179.9,48.4h6.4v13.8h-6.4V48.4z M180,48.4h0.6c1.5,0,2.6-0.7,3.4-2
			s1.2-3.3,1.2-5.8V19.3h6.7v20.2c0,2.9-0.4,5.4-1.2,7.5s-2,3.6-3.6,4.7s-3.6,1.6-6,1.6H180V48.4z M189.1,19.3h15.5v6.4h-15.5V19.3z
			 M201.7,19.3h6.7v35.5h-6.7V19.3z M205.8,48.4h6.5v13.8h-6.5V48.4z"/>
		<path class="st0" d="M220.5,19.3h6.7v35.5h-6.7V19.3z M222.9,19.3h21.4v6.4h-21.4V19.3z M222.9,34h18.7v6.4h-18.7V34z M222.9,48.4
			h21.4v6.4h-21.4V48.4z"/>
	</g>
</g>
<g>
	<g>
		<path class="st1" d="M39.4,8.1h4.2l13.3,34.8h-7.1l-8.3-23.8l-8.3,23.8h-7.1L39.4,8.1z M32.5,31h18.3v6.3H32.5V31z"/>
	</g>
</g>
<path class="st0" d="M143.6,24.3l2-2c0.2-0.2,0.2-0.5,0-0.7l-2-2c-0.1-0.1-0.2-0.1-0.3-0.1l-14.4-0.1l0,5l14.4,0.1
	C143.4,24.4,143.5,24.4,143.6,24.3z M125.1,19.4c-0.5,0-0.9,0.4-0.9,0.9l0,3.1c0,0.5,0.4,0.9,0.9,0.9l2.4,0l0-5
	C127.5,19.4,125.1,19.4,125.1,19.4z"/>
</svg>
